<?xml version="1.0" encoding="UTF-8" standalone="no"?>
<svg width="32px" height="32px" viewBox="0 0 32 32" version="1.1" xmlns="http://www.w3.org/2000/svg" xmlns:xlink="http://www.w3.org/1999/xlink">
    <!-- Generator: Sketch 44.1 (41455) - http://www.bohemiancoding.com/sketch -->
    <title>Arrow 8</title>
    <desc>Created with Sketch.</desc>
    <defs></defs>
    <g id="Page-2-Copy" stroke="none" stroke-width="1" fill="none" fill-rule="evenodd">
        <g id="20" stroke="#979797" fill-rule="nonzero">
            <path d="M11.4923912,19.0781624 L11.4923912,13.4923759 C11.4923912,12.9400912 11.044676,12.4923759 10.4923912,12.4923759 C9.94010646,12.4923759 9.49239121,12.9400912 9.49239121,13.4923759 L9.49239121,21.4923759 C9.49239121,22.0446607 9.94010646,22.4923759 10.4923912,22.4923759 L18.4923912,22.4923759 C19.044676,22.4923759 19.4923912,22.0446607 19.4923912,21.4923759 C19.4923912,20.9400912 19.044676,20.4923759 18.4923912,20.4923759 L12.9066048,20.4923759 L21.5768443,11.8221364 C21.966373,11.4326077 21.9682886,10.8029725 21.5750416,10.4097255 C21.1845174,10.0192012 20.5505914,10.0199622 20.1665893,10.4039643 L11.4923912,19.0781624 Z" id="Rectangle-348" stroke="none" fill="#2A2630" transform="translate(15.992391, 15.992376) rotate(-45.000000) translate(-15.992391, -15.992376) "></path>
            <path d="M32,16 C32,24.836556 24.836556,32 16,32 C7.163444,32 0,24.836556 0,16 C0,7.163444 7.163444,0 16,0 C24.836556,0 32,7.163444 32,16 Z M2,16 C2,23.7319865 8.2680135,30 16,30 C23.7319865,30 30,23.7319865 30,16 C30,8.2680135 23.7319865,2 16,2 C8.2680135,2 2,8.2680135 2,16 Z" id="Oval-1" stroke="none" fill="#95909E"></path>
        </g>
    </g>
</svg>