<?xml version="1.0" encoding="utf-8"?>
<!-- Generator: Adobe Illustrator 23.0.1, SVG Export Plug-In . SVG Version: 6.00 Build 0)  -->
<svg version="1.1" id="Layer_1" xmlns="http://www.w3.org/2000/svg" xmlns:xlink="http://www.w3.org/1999/xlink" x="0px" y="0px"
	 viewBox="0 0 1024 1024" style="enable-background:new 0 0 1024 1024;" xml:space="preserve">

<g>
	<g>
		<path d="M493.73,814.44c-34.91,0-63.3,28.4-63.3,63.3c0,34.9,28.4,63.3,63.3,63.3c34.9,0,63.3-28.4,63.3-63.3
			C557.02,842.84,528.63,814.44,493.73,814.44z"/>
		<path d="M809.71,814.44c-34.91,0-63.3,28.4-63.3,63.3c0,34.9,28.4,63.3,63.3,63.3c34.9,0,63.3-28.4,63.3-63.3
			C873.01,842.84,844.61,814.44,809.71,814.44z"/>
		<path d="M864.51,514.69c1.11-6.82-0.69-13.42-5.08-18.58c-4.33-5.09-10.64-8.01-17.32-8.01H410.59c-7.11,0-13.89,3.39-18.17,9.07
			c-4.27,5.68-5.63,13.14-3.65,19.97l33.32,114.96c2.8,9.66,11.77,16.4,21.82,16.4h457.34c10.05,0,19.02-6.74,21.82-16.4
			l100.03-345.54c1.88-6.49,0.79-13.43-3-19.03c-3.78-5.6-9.82-9.2-16.54-9.88l-218.51-21.97l-73.08-7.37l-146.35-14.75l-69.46-7
			L245.8,181.23l-18.36-63.43c-2.59-8.96-10.26-15.36-19.54-16.28L25,83.07c-0.78-0.08-1.56-0.12-2.33-0.12
			c-11.68,0-21.38,8.78-22.55,20.43c-0.6,6.04,1.17,11.96,5.01,16.66c3.84,4.7,9.27,7.62,15.32,8.23l167.62,16.91l179.68,620.69
			c2.79,9.66,11.76,16.4,21.82,16.4h543.38c12.52,0,22.72-10.19,22.72-22.72c0-12.52-10.19-22.72-22.72-22.72H406.63L259.41,228.27
			l233.57,23.61l72.63,7.33l101.32,10.22l112.26,11.32l192.69,19.36l-87.7,302.96H460.97l-20.15-69.54h399.58
			C852.39,533.53,862.76,525.44,864.51,514.69z"/>
	</g>
</g>
</svg>
